<svg preserveAspectRatio="xMidYMid meet" data-bbox="52.435 192.757 462.047 181.419" viewBox="52.435 192.757 462.047 181.419" height="566.929" width="566.929" xmlns="http://www.w3.org/2000/svg" data-type="color" role="presentation" aria-hidden="true" aria-label=""><defs><style>#comp-jye20rp7 svg [data-color="1"] {fill: #C3FF5B;}</style></defs>
    <g>
        <path d="M411.233 257.455c-.944 2.59-3.294 3.195-5.565 3.694-4.564 1.002-9.112 1.947-12.875 4.993-2.227 1.802-5.192 1.191-7.749 2.332-3.289 1.468-6.963 1.941-10.274 3.767-2.976 1.642-6.506 2.278-9.78 3.392-3.45 1.174-6.861 2.455-10.257 3.77-8.389 3.25-17.124 5.616-25.679 8.7 5.165-.245 10.262-1.508 15.328-.702l2.776-2.612c.664.944 1.482 1.373 2.639 1.242 3.433-.389 7.078.961 10.304-.666 3.174-1.6 6.924.849 9.879-1.774.463-.411 1.62-.148 2.437-.043 6.554.844 12.884-1.673 19.406-1.256 4.031-1.967 8.523-.389 12.508-1.427 4.043-1.053 8.122-.31 11.942-1.226 3.816-.915 7.565-.803 11.34-1.19 1.076-.11 2.083-.784 3.216-.175-.073-2.779 4.064-2.11 3.947-4.416-.115-2.246 3.166-.768 2.788-3.243-.134-.879 1.785-2.069 2.773-3.124l4.331-.237.313-3.127c1.168-1.136 3.477.464 4.217-1.695l1.591 1.465c2.978-3.408 6.162.531 9.345-.232 1.815 1.912 4.238 1.473 6.314 1.134 2.256-.369 3.622 1.623 5.732 1.401 1.581-.166 1.997 1.8 3.282 2.338l.952-.949 5.332 2.715c.43 1.995 2.53 3.336 4.027 4.995v4.438c-3.411.311-6.996-.718-9.673 2.074 1.677 2.91 6.887.743 7.691 5.318l4.156.235c.984.824.273 1.944.576 3.168-1.863.957-3.971.128-5.723.511-1.829 1.593.21 2.157.585 3.124l-1.792 1.786c-6.19 0-12.413-.09-18.63.05-2.128.048-4.487-.958-6.42 1.111-.349.374-2.009.563-2.821-.401-1.314-1.561-3.14-.281-4.694-.92-.941-1.58-.739-3 .803-4.191-8.875-2.243-6.435-2.788-18.634-.624a3.725 3.725 0 0 1-1.242 0c-5.331-.898-10.479.913-15.636 1.538-3.995.484-8.166.066-11.923 1.118-5.888 1.648-12.287.163-17.896 3.36-1.255.716-3.252.332-4.875.158-1.733-.187-2.65 1.591-4.478 1.354-3.609-.469-6.971.902-10.29 2.117-2.194.803-4.49.142-6.83 1.163-2.687 1.172-2.956.56-4.348 1.396-2.674.76-5.163-.64-7.477 1.034-1.948 1.409-4.942-.721-6.761 1.674-3.49-.67-6.769.604-10.051 1.313-5.635 1.218-11.208 2.642-17.012 2.395-2.123 1.564-4.458 2.119-7.058 2.634-10.091 1.998-20.579 2.428-30.066 6.972-1.225.587-2.409.326-3.593.315-4.215-.037-8.106 1.306-11.939 2.764-2.742 1.043-5.526 2.134-8.408 2.13-2.523-.003-4.644.737-6.764 1.8-.513.257-.788.883-1.544.801-4.741-.515-9.305.627-13.444 2.584-4.337 2.05-9.099 1.95-13.447 3.611-5.223 1.996-10.828 2.726-16.026 4.88-1.415.586-3.281.089-4.932.089l-2.444 2.437c-3.855-.628-7.096 2.613-11.065 2.486-4.067-.13-7.072 4.151-11.251 2.381l-2.364 2.357c-7.8.775-14.642 5.656-22.7 5.251-3.478 3.196-8.096 3.583-12.292 4.909-6.079 1.92-11.983 4.547-18.464 5.016-5.985 3.836-13.168 4.206-19.623 6.706a30.368 30.368 0 0 1-7.9 1.9c-2.484.245-4.708.634-6.443 2.555h-9.977c-1.479-1.199.459-3.602-1.933-4.282l1.232-1.228c-1.289-2.151-4.374-2.058-5.393-4.4h-3.874c-1.031-1.43-3.068-2.129-3.207-4.173.96-1.339 1.253.011 1.841.282 2.296-1.174 2.413-3.717 3.48-5.681 2.289-.562 3.62-2.225 5.044-4.125l-4.053-4.941v-2.064c-2.878-1.707-5.547 2.476-8.49.449-2.521-.791-.454-4.01-2.846-5.21l4.897-2.266c.847-.847-.482-2.609 1.065-3.653.917-.618 2.288-1.313 1.57-2.804 2.082-1.242 4.449-1.286 5.498-3.959.78-1.987 3.494-2.254 5.409-3.053l.799-2.235h2.63c.915-2.31 1.958-4.494 5.165-3.65l.817-2.304c2.959-.874 6.315-.945 8.184-4.023 5.28-1.023 9.227-4.757 13.849-7.085 6.181-3.112 12.954-5.043 18.655-9.081 1.508-1.068 3.267-1.172 4.918-1.659 4.101-1.211 7.265-4.377 11.497-5.316 3.226-.716 6.056-2.366 8.98-3.87 5.468-2.813 11.388-4.55 17.18-6.604 4.681-1.66 9.752-2.521 13.798-5.745 1.373-1.094 3.05-.181 4.649-.789 7.529-2.866 14.747-6.612 22.713-8.283 1.807-2.559 4.835-2.383 7.392-3.178 2.402-.747 4.823-1.447 7.316-1.977 3.497-.743 6.889-2.418 10.235-3.756 6.458-2.582 13.205-4.141 19.683-6.567 6.292-2.356 12.638-4.6 19.07-6.534 2.598-.781 5.147-1.379 7.705-2.467 2.392-1.017 5.362-.876 7.534-2.841 5.257.229 9.533-3.116 14.61-3.921 4.846-.768 9.467-3.414 14.217-4.512 5.871-1.357 11.663-3.206 17.663-4.174 1.843-.297 3.992-1.269 5.931-2.103 3.512-1.51 7.601-1.615 11.321-2.732 5.557-1.668 11.265-2.71 16.835-4.374 4.236-1.265 8.746-1.871 13.091-3.003 7.681-2.001 15.404-3.842 23.09-5.828 3.188-.824 6.634-.914 9.926-1.626 4.946-1.07 10.027-1.6 14.788-3.384 1.66-.622 3.235-.277 4.831-.312 2.809-.062 5.697.175 8.172-1.334 2.241-1.366 4.644-1.478 6.971-1.114 2.586.404 4.41-1.636 6.978-1.455 2.276.16 4.939 1.191 7.019-.974.21-.219.789-.189 1.171-.123 5.335.914 10.392-1.429 15.676-1.287 5.392.144 10.841-.403 16.169.197 3.133.353 6.23 1.251 8.661 1.093 4.115 1.374 6.129 4.283 8.632 6.565.647 3.863.136 7.579-1.265 11.255 1.858 1.92 5.561-.918 6.352 3.512l-1.732 3.412c-2.586.377-1.359-1.952-2.511-2.397-.697.927-2.148 1.371-1.944 2.522.404 1.711 2.031.722 2.516 1.879-.004.473.199 1.038-.332 1.585-1.422 1.463-3.23 2.139-5.342 2.84-1.193 5.8-7.803 3.851-11.157 7.385-3.127-.971-5.868 1.375-8.801 1.22-.688.952-.223 1.972-1.085 2.4-.935.218-1.636-.092-2.127-.869-2.569 1.227-5.504.815-7.786 2.265-1.015-1.167-.002-1.531.264-1.628 3.073-1.123 5.715-3.21 8.927-3.993 4.598-1.122 8.369-3.884 12.369-6.187.208-.12.121-.751.214-1.473-1.799-1.064-3.834-.281-5.406-.472-6.912 4.539-14.64 6.795-21.774 11.152-3.437-1.225-6.436 1.294-9.596 2.668-1.579.687-2.694 1.647-4.781.176 4.695-4.384 10.896-6.513 15.934-11.7-2.792.604-4.925-.756-6.998.947-1.834 1.508-4.35-.589-6.351 1.266-1.643 1.523-4.501-.77-6.241 1.382-2.154-.935-4.225.182-6.316.357-2.121.177-4.027 1.775-6.339 1.17-1.322 2.56-4.483.012-5.962 2.135-2.13-.903-3.714.123-5.432 1.581-6.831-.515-13.292 2.263-19.878 4.018-3.518.937-7.116 1.746-10.624 2.82-3.368 1.031-6.804 1.793-10.43 2.032-3.161.209-6.243 1.809-9.33 2.882-2.979 1.035-5.866 2.316-9.169 1.954-1.362-.149-2.567.11-3.952.994-3.789 2.419-8.441 2.922-12.702 3.713-5.398 1.002-10.143 4.429-15.844 3.95-2.313 2.464-5.701 2.295-8.572 3.335-3.137 1.137-6.408 2.329-10.202 1.443-1.382 2.804-4.412 3.289-6.906 3.78-9.339 1.839-18.171 5.275-27.163 8.153-4.767 1.525-9.606 2.805-14.364 4.356-3.31 1.079-6.318 3.512-10.153 2.548-2.595 2.864-6.467 2.507-9.722 3.536-2.463.778-4.034 2.764-6.815 3.224-7.237 1.197-13.812 4.603-20.383 7.776-1.55.749-3.26-.352-4.644.824-1.914 1.627-4.642.129-6.707 1.925-1.702 1.479-4.222 1.873-6.278 2.772-4.442 1.942-9.49 2.03-13.594 4.76-2.607-.728-3.097 3.129-5.833 2.556-2.273-.476-3.923 1.401-5.841 2.331-2.399 1.163-5.039 1.976-7.664 2.47-1.457.274-2.905.28-3.672 1.646-.944 1.682-2.619.594-3.868 1.251-3.392 1.782-7.081 2.999-10.61 4.416-3.348 1.344-6.154 4.046-10.188 4.061-3.507.013-5.882 3.821-9.66 3.623-2.111 2.624-5.638 2.507-8.207 4.213-1.973 1.311-4.252 1.768-6.396 2.484 0 .751 0 1.373.36 1.902-1.562.379-3.015-.586-4.551 1.483 1.776-.49 3.027.529 4.551-1.483 5.944-.984 11.883-3.366 17.93-5.283 3.664-1.162 7.906-.48 11.04-3.316 6.612.056 12.226-3.571 18.381-5.213 3.831-1.022 8.298-.51 11.57-3.48 4.303.598 7.961-1.935 11.957-2.78 4.453-.942 9.045-2.198 13.492-3.149 5.521-1.18 10.814-3.149 16.368-4.248 4.668-.924 9.461-1.817 14.072-3.384 5.473-1.86 11.201-2.976 16.815-4.425 5.612-1.449 11.168-3.192 16.853-4.25 2.925-.544 5.473-2.335 8.276-2.458 3.068-.134 5.811-1.003 8.513-2.079 2.591-1.032 5.639.225 7.958-1.789.459-.398.921-.793 1.426-1.227 2.298-.118 4.548-.432 6.912-1.089 5.794-1.61 11.674-3.039 17.663-3.958 4.007-.615 8.036-1.518 11.842-2.884 3.645-1.307 7.51-1.295 11.191-3.005 3.34-1.551 7.506-1.96 11.231-2.923 8.916-2.304 17.835-4.723 26.513-7.92 7.733-2.849 15.598-5.342 23.378-8.068 1.626-.57 3.134-1.472 5.189-2.458h4.981zM178.35 295.952c-2.058-.398-3.226 1.331-5.677 2.063 2.482.456 4.113.811 5.677-.09 0-.783 0-1.378-.677-1.771 1.479-.423 2.589.365 3.072-.942-.862-.83-1.653-.726-2.395.74zm260.281-9.935c-3.111 0-6.223-.011-9.334.003-2.994.014-5.881.423-8.858 1.054-4.055.859-8.346.662-12.545 1.147-4.759.549-9.467 2.397-14.387 1.525-1.1-.195-1.923.864-2.676.952-3.054.356-6.211-.08-9.239.378-2.825.427-5.291 2.363-8.316 2.411-2.777.043-5.686-.644-8.196 1.224-7.282-.531-14.116 2.768-21.37 2.495-.593-.022-1.483-.11-1.738.218-1.295 1.668-3.071 1.061-4.585.94-1.755-.14-2.654 1.844-4.476 1.341-2.668-.736-4.891 1.927-7.56 1.194-2.958-.812-5.599.718-8.143 1.462-3.003.878-5.894.914-8.876 1.06-.971.048-1.909.163-2.911.434-6.964 1.889-13.868 4.062-21.158 4.58-2.729.194-5.314 1.469-8.191 1.404-.521-.012-2.172.681-3.052 1.602l1.556 1.623 24.073-5.737 1.182.934c3.248-.836 6.217-1.707 9.234-2.347 3.263-.693 6.886-.523 9.776-1.917 3.127-1.508 6.614.978 9.314-1.576 3.149.556 6.017-3.335 9.295-.42l1.978-2.171c1.815 1.019 3.792.02 5.063 1.059 1.238-.722.076-2.536 1.804-2.447 1.042-.183 1.397.723 2.017 1.197 1.675-1.935 3.391-1.547 5.034-.153 2.332-1.77 5.616-1.181 7.633-3.635l.988 2.84 1.28-2.735 1.395 1.246c5.95-2.378 12.742-.331 18.007-3.852 1.172.378 1.379 1.502 2.409 1.359.756.199 1.024-.776 1.497-.8 3.573-.182 6.892-1.797 10.52-1.728 1.536.029 3.015-.149 4.643-.728 2.483-.883 5.332-1.118 8.029-1.634 3.363-.644 6.848-.204 10.299-.519 3.062-.279 6.169-1.693 9.282-.751 1.613.489 1.855-1.662 3.315-1.27 1.811 1.457 3.826 1.745 5.988.666 0-.48 0-.894-.15-2.859.408 1.604 1.452.568 2.009.937.647.429.951 1.398 2.497 1.154.504-2.924 3.929.165 5.342-2.091-3.326.001-6.522.001-9.698.931zm-285.812 19.87c-1.683-.286-2.654 1.508-4.471 1.388-1.032-.068-2.672.615-3.363 2.107 3.59 1.014 6.358-1.616 10.097-1.237-1.09-1.089-1.676-1.674-2.263-2.258zm107.737 9.447c3.224 1.868 5.609-1.554 8.319-.751.556-1.264.499-1.978-.607-2.647l-5.418 2.724-2.085-1.33-.209 2.004zM67.549 347.539c.915 1.084 2.115.468 3.226.421l1.716-1.711-3.427-1.716c-.287.935-1.66 1.114-1.515 3.006zm381.684-127.341c.885-.837.909-1.666-.04-2.489-.57.091-1.248-.261-1.674.488-.544 1.543.108 2.153 1.714 2.001zm-94.177 20.3c-1.312-.658-2.417-.635-4.17.485 1.334.184 1.897.229 2.445.345.617.13.657 1.575 1.802.746l-.077-1.576zm-9.72 3.281c2.779.109 2.798-.916 1.833-2.563l-1.833.35v2.213zm-96.609 29.82c.887-.839.911-1.667-.038-2.49-.57.091-1.248-.26-1.677.492-.336.743-.264 1.446.485 1.999l1.23-.001zm201.114 13.055c.84.883 1.67.907 2.496-.04-.092-.569.261-1.244-.489-1.67-1.549-.541-2.16.109-2.007 1.71zm-157.023-30.136l-2.636 1.417c1.163.965 1.849.981 2.636.289v-1.706zm-158.223 57.439c1.592.9 2.699.792 4.065-.003-1.479-.835-2.581-.835-4.065.003zm-4.565 1.503c1.059-.208 2.339 1.076 3.484-.339-1.284-.789-2.387-.731-3.484.339zm367.756-92.789c-.905.84-.905 1.668 0 2.508.904-.84.904-1.668 0-2.508zm8.717-7.427c.905-.84.905-1.668 0-2.508-.904.84-.904 1.668 0 2.508z" fill="#C3FF5B" data-color="1"></path>
        <path d="M448.594 242.553v-1.91l3.913-1.923c1.216.523 1.381 1.815.908 1.994-1.605.608-2.829 2.293-4.821 1.839z" fill="#C3FF5B" data-color="1"></path>
        <path d="M422.48 251.343h3.31c-1.207 1.661-1.207 1.661-2.421 2.376-1.103-.23-.962-1.067-.889-2.376z" fill="#C3FF5B" data-color="1"></path>
        <path d="M436.779 248.76c-1.606.152-2.258-.457-1.714-2.001.426-.748 1.104-.396 1.674-.488.949.823.925 1.652.04 2.489z" fill="#C3FF5B" data-color="1"></path>
        <path d="M63.826 345.576l-.184 2.359-1.764.148c-.756-.68-.757-1.367-.201-2.34l2.149-.167z" fill="#C3FF5B" data-color="1"></path>
        <path d="M449.19 242.396c-1.755 2.201-3.015.929-4.86 1.644 1.609-2.166 3.061-1.202 4.86-1.644z" fill="#C3FF5B" data-color="1"></path>
        <path d="M410.827 257.564c.907-1.518 1.726-1.392 2.48-1.336.537.04 1.064.223 1.72.37-1.139 1.536-2.592.571-4.2.966z" fill="#C3FF5B" data-color="1"></path>
        <path d="M427.341 250.655c.958-.886 1.647-.844 2.422-.226-.476 1.369-1.273.989-2.422.226z" fill="#C3FF5B" data-color="1"></path>
        <path d="M438.642 245.657c.404-.579.819-.579 1.224 0-.405.58-.82.58-1.224 0z" fill="#C3FF5B" data-color="1"></path>
        <path d="M420.573 253.74c.581.403.581.817 0 1.22-.581-.403-.581-.817 0-1.22z" fill="#C3FF5B" data-color="1"></path>
        <path d="M416.837 256.202c-.581-.403-.581-.817 0-1.22.581.403.581.817 0 1.22z" fill="#C3FF5B" data-color="1"></path>
    </g>
</svg>